<svg width="50" height="50" viewBox="0 0 50 50" fill="none" xmlns="http://www.w3.org/2000/svg">
<path d="M25 0C11.1929 0 0 11.1929 0 25C0 38.8071 11.1929 50 25 50C38.8071 50 50 38.8071 50 25C50 11.1929 38.8071 0 25 0ZM46.8762 21.5286L33.9583 28.9869C33.3143 29.3595 32.9167 30.0464 32.9167 30.7917V45.6881C32.9167 45.9155 32.775 46.1202 32.5607 46.1976C30.7143 46.8571 28.7976 47.269 26.8357 47.4262C26.5202 47.4512 26.25 47.2012 26.25 46.8845V28.1452C26.25 26.6571 27.044 25.281 28.3333 24.5369L44.5893 15.1524C44.8631 14.994 45.2143 15.1012 45.3488 15.3869C45.4833 15.6726 45.6107 15.9548 45.7333 16.2429C46.3786 17.769 46.8476 19.3488 47.1405 20.9679C47.181 21.1917 47.0738 21.4155 46.8774 21.5298L46.8762 21.5286ZM25 2.5C28.0381 2.5 30.9845 3.09405 33.7571 4.26667C34.6321 4.6369 35.4774 5.05833 36.2917 5.53214C36.6524 5.74167 36.6512 6.2631 36.2905 6.47143L25.6298 12.6262C25.2429 12.85 24.7655 12.85 24.3786 12.6262L13.7226 6.46429C13.3619 6.25595 13.3607 5.73452 13.7226 5.525C14.5321 5.05476 15.3738 4.63571 16.2429 4.26786C19.0155 3.09524 21.9619 2.50119 25 2.50119V2.5ZM9.09048 9.09048C9.51905 8.66191 9.9619 8.25238 10.419 7.8631C10.5952 7.7131 10.8452 7.6881 11.0452 7.80357L23.9607 15.2726C24.606 15.6452 25.4 15.6452 26.0452 15.2726L38.9667 7.8131C39.1667 7.69762 39.4179 7.72262 39.5929 7.87262C40.0452 8.25952 40.4845 8.66548 40.9095 9.09048C41.8774 10.0583 42.7464 11.1012 43.5143 12.2107C43.694 12.4702 43.6119 12.8298 43.3381 12.9881L27.0857 22.3714C25.7952 23.1167 24.206 23.1155 22.9167 22.3702L6.67024 12.9738C6.39643 12.8155 6.31429 12.4571 6.49405 12.1964C7.25952 11.0917 8.12619 10.0536 9.09048 9.08929V9.09048ZM5.41786 15.1381L21.669 24.5357C22.9571 25.281 23.75 26.6548 23.75 28.1429V46.8845C23.75 47.2012 23.4798 47.4512 23.1643 47.4262C21.2012 47.269 19.2857 46.8571 17.4393 46.1976C17.225 46.1214 17.0833 45.9155 17.0833 45.6881V30.7869C17.0833 30.0429 16.6869 29.356 16.0429 28.9833L3.12619 21.5143C2.92976 21.4 2.82262 21.1762 2.8631 20.9524C3.15595 19.3393 3.62381 17.7643 4.26667 16.2429C4.39048 15.9488 4.52143 15.6595 4.65714 15.3726C4.79286 15.0857 5.14405 14.9798 5.41786 15.1381ZM4.26667 33.7571C3.09405 30.9845 2.5 28.0381 2.5 25C2.5 24.9917 2.5 24.9833 2.5 24.9762C2.5 24.5607 2.95357 24.3036 3.31429 24.5107L13.9655 30.6702C14.3476 30.8917 14.5833 31.3 14.5833 31.7417V44.031C14.5833 44.4488 14.131 44.7095 13.769 44.5012C12.0655 43.5202 10.4988 42.3179 9.08929 40.9095C7.02262 38.8429 5.4 36.4357 4.26667 33.7571ZM45.7321 33.7571C44.5988 36.4357 42.9762 38.8429 40.9095 40.9095C39.5012 42.3179 37.9333 43.5202 36.2298 44.5012C35.8679 44.7095 35.4155 44.4488 35.4155 44.031V31.7536C35.4155 31.3071 35.6536 30.894 36.0405 30.6714L46.6857 24.5262C47.0452 24.3179 47.4988 24.5762 47.4988 24.9917C47.4988 24.9952 47.4988 24.9976 47.4988 25.0012C47.4988 28.0393 46.9048 30.9857 45.7321 33.7583V33.7571Z" fill="#A8BE43"/>
</svg>
